<svg width="26" height="26" viewBox="0 0 26 26" fill="none" xmlns="http://www.w3.org/2000/svg">
<path d="M8.5 1H3.5C2.11929 1 1 2.11929 1 3.5V8.5C1 9.88071 2.11929 11 3.5 11H8.5C9.88071 11 11 9.88071 11 8.5V3.5C11 2.11929 9.88071 1 8.5 1Z" fill="black"/>
<path opacity="0.45" d="M22.5 1H17.5C16.1193 1 15 2.11929 15 3.5V8.5C15 9.88071 16.1193 11 17.5 11H22.5C23.8807 11 25 9.88071 25 8.5V3.5C25 2.11929 23.8807 1 22.5 1Z" fill="black"/>
<path opacity="0.45" d="M8.5 15H3.5C2.11929 15 1 16.1193 1 17.5V22.5C1 23.8807 2.11929 25 3.5 25H8.5C9.88071 25 11 23.8807 11 22.5V17.5C11 16.1193 9.88071 15 8.5 15Z" fill="black"/>
<path opacity="0.18" d="M22.5 15H17.5C16.1193 15 15 16.1193 15 17.5V22.5C15 23.8807 16.1193 25 17.5 25H22.5C23.8807 25 25 23.8807 25 22.5V17.5C25 16.1193 23.8807 15 22.5 15Z" fill="black"/>
</svg>
